<svg width="800" height="600" xmlns="http://www.w3.org/2000/svg">

 <g>
  <title>Layer 1</title>
  <ellipse stroke-width="5" ry="79" rx="93" id="svg_1" cy="372.19999" cx="282.99999" stroke="#000" fill="#fff"/>
  <ellipse ry="0.5" id="svg_2" cy="368.69999" cx="590.99998" stroke="#000" fill="#fff"/>
  <ellipse stroke-width="5" ry="86.5" rx="95.5" id="svg_3" cy="366.69999" cx="432.49999" stroke="#000" fill="#fff"/>
  <ellipse id="svg_4" cy="206.2" cx="453.99999" stroke="#000" fill="#fff"/>
  <polyline stroke-linecap="round" id="svg_5" points="1127.999975651503,151.19999785423286 1127.999975651503,151.19999785423286 " stroke="#000" fill="none"/>
  <path stroke-width="0" d="m262,295.19998c0,-1 0,-4 0,-9c0,-8 0.81024,-18.09525 -1,-30c-1.38599,-9.11475 -4,-19.99998 -7.00002,-28.99998c-2,-6 -3.49873,-11.94672 -4,-19c-0.56711,-7.97987 0.57736,-16.02385 0,-23c-0.50171,-6.06204 -2,-10 -2,-15c0,-3 0,-7 0,-15c0,-8 -0.49829,-14.93796 -1,-21c-0.57736,-6.97615 -0.2679,-13.04353 1,-20c1.65314,-9.07012 3.79567,-18.09115 7,-25c2.82246,-6.08553 6.81267,-9.20681 9.00002,-11c2.78833,-2.28588 5.78491,-3.22733 10,-7c4.77115,-4.27038 10,-8 16,-12c3,-2 4.90778,-2.49623 9,-3c4.96252,-0.61092 12.01761,-0.49622 19,0c7.05328,0.50126 13.14221,1.36097 19,3c5.18597,1.45106 9.46448,3.46447 13,7c3.53552,3.53553 6.8819,8.07278 10,13c3.85614,6.09346 8.3186,11.85101 11,18c3.41519,7.83176 7,16 11,26c4,10 8.19623,18.93695 11,28c2.15158,6.9549 4.67261,13.70848 7,20c1.43048,3.867 1.90338,9.01691 3,15c0.91925,5.01547 3,11 3,17c0,6 1.99023,12.79025 3,20c0.55481,3.96133 0.49756,7.9258 1,13c0.39417,3.98053 0.51944,7.03874 1,10c0.50653,3.12144 0.69254,6.186 2,8c0.8269,1.14726 0.54706,3.11235 2,7.99998c1.53448,5.16193 2,8 2,9c0,4 1,5 1,7c0,0 0,1 0,1c0,2 0,3 0,4l0,2l0,1" id="svg_6" stroke="#000" fill="none"/>
  <path stroke-width="5" d="m245.99998,295.19998c-1,0 -1.68932,-1.00967 -2,-6c-0.50096,-8.04669 -2.06992,-20.98944 -4,-33.99998c-2.07524,-13.98904 -4.27673,-26.09897 -6,-36c-1.414,-8.12407 -2.47934,-19.07321 -4,-28c-2.24045,-13.15221 -4.93773,-29.00357 -6,-47c-0.94463,-16.00336 -2.51286,-28.14435 -1,-36c1.01837,-5.28799 0.96855,-9.41207 3,-13c2.09035,-3.69195 6.73325,-9.23273 12,-15c5.72195,-6.26572 12,-10 16,-13c4.00002,-3 7.00002,-4 12.00002,-6c5,-2 10.98453,-5.08074 16,-6c5.98309,-1.09661 12,-2 18,-2c5,0 11.07748,-0.96109 17,0c3.12143,0.50654 8.19577,2.64886 12,5c4.25327,2.62865 8.78491,7.22732 13,11c4.77115,4.27038 11.95032,9.06024 18,14c4.95975,4.04979 9.83505,10.11329 14,16c2.88785,4.0817 4.67261,9.70847 7,16c2.86099,7.734 5.8699,14.57016 9,22c2.82645,6.70905 4.34314,13.87605 6,19c2.53711,7.84622 6.1622,15.93268 9,23c3.18369,7.9287 5,13 7,19c2,6 4.34518,12.17697 6,17c1.45139,4.23007 3.49756,6.9258 4,12c0.39417,3.98053 1.49756,9.9258 2,15c0.49268,4.97566 0.49756,9.9258 1,14.99998c0.59122,5.97079 1,10 1,13c0,2 0,5 0,6c0,3 0,4 0,5l0,-1" id="svg_7" stroke="#000" fill="none"/>
  <path stroke-width="5" d="m244.99998,287.19998c0,1 0,2 0,3c0,1 0,2 0,3c0,2 0,2 0,3c0,1 0,2 0,1l-1,-1l0,-1" id="svg_8" stroke="#000" fill="none"/>
  <path stroke-width="5" d="m290,95.2c0,0 -0.29291,-0.70711 -1,0c-0.70709,0.70711 -0.38269,2.07612 0,3c0.5412,1.30656 0.79282,2.35818 3,2c1.39597,-0.22653 1,-1 1,-2c0,-3 0.30655,-3.4588 -1,-4c-0.92389,-0.38268 -2.29291,-0.70711 -3,0c-0.70709,0.70711 0,1 0,2c0,1 1,1 1,1c0,-1 0.29291,-1.29289 1,-2c0.70709,-0.70711 -1,-1 -1,-1l0,1" id="svg_9" stroke="#000" fill="none"/>
 </g>
</svg>